<?xml version="1.0" standalone="no"?>
<!DOCTYPE svg PUBLIC "-//W3C//DTD SVG 20010904//EN"
 "http://www.w3.org/TR/2001/REC-SVG-20010904/DTD/svg10.dtd">
<svg version="1.0" xmlns="http://www.w3.org/2000/svg"
 width="700.000000pt" height="700.000000pt" viewBox="0 0 700.000000 700.000000"
 preserveAspectRatio="xMidYMid meet">
<metadata>
Created by potrace 1.14, written by Peter Selinger 2001-2017
</metadata>
<g transform="translate(0.000000,700.000000) scale(0.100000,-0.100000)"
fill="#000000" stroke="none">
<path d="M3450 6983 c-30 -16 -245 -363 -1728 -2788 -1191 -1950 -1697 -2786
-1709 -2824 -28 -97 -6 -203 61 -294 25 -35 218 -164 405 -272 664 -381 1401
-634 2166 -744 483 -70 1027 -79 1516 -25 900 98 1768 399 2549 883 85 53 172
113 193 135 83 82 117 220 80 326 -23 67 -3388 5576 -3418 5596 -36 24 -78 26
-115 7z m276 -686 c181 -303 219 -374 207 -381 -9 -4 -66 -6 -127 -4 -90 4
-125 10 -186 33 -94 36 -144 36 -240 0 -59 -22 -97 -29 -180 -32 -174 -8 -181
-44 74 384 121 205 223 372 226 372 3 0 105 -167 226 -372z m-140 -577 c132
-40 297 -44 448 -10 27 6 50 9 51 8 12 -13 2145 -3509 2145 -3516 0 -12 -175
-131 -325 -222 -567 -343 -1197 -555 -1880 -635 -191 -22 -659 -31 -866 -16
-741 54 -1427 270 -2059 649 -150 90 -330 212 -330 224 0 6 2130 3498 2144
3515 1 2 36 -4 77 -13 139 -29 327 -18 450 26 30 10 59 17 65 15 7 -2 42 -13
80 -25z"/>
<path d="M3368 5231 c-272 -89 -389 -397 -245 -643 36 -62 128 -145 192 -174
171 -79 368 -41 497 94 31 32 65 77 77 100 119 233 12 519 -229 614 -78 30
-215 35 -292 9z"/>
<path d="M2527 4149 c-122 -29 -237 -120 -292 -232 -90 -187 -54 -384 98 -524
258 -238 683 -79 727 272 38 298 -243 552 -533 484z"/>
<path d="M4277 4149 c-122 -29 -237 -120 -292 -232 -90 -187 -54 -384 98 -524
258 -238 683 -79 727 272 38 298 -243 552 -533 484z"/>
<path d="M1891 2949 c-131 -22 -262 -125 -322 -254 -24 -51 -32 -84 -36 -148
-12 -187 84 -349 254 -430 64 -30 74 -32 183 -32 109 0 119 2 183 32 221 105
316 367 213 586 -60 126 -192 225 -331 247 -68 11 -69 11 -144 -1z"/>
<path d="M4956 2949 c-128 -21 -262 -123 -321 -243 -106 -216 -9 -484 212
-589 64 -30 74 -32 183 -32 109 0 119 2 183 32 170 81 266 243 254 430 -12
200 -167 370 -367 402 -72 12 -75 12 -144 0z"/>
<path d="M3412 2619 c-116 -22 -243 -119 -300 -227 -122 -232 -17 -516 228
-614 79 -32 241 -32 320 0 249 100 351 387 223 624 -35 64 -130 153 -196 183
-90 42 -181 53 -275 34z"/>
</g>
</svg>
